<svg xmlns="http://www.w3.org/2000/svg" version="1.1" xmlns:xlink="http://www.w3.org/1999/xlink" xmlns:svgjs="http://svgjs.dev/svgjs" width="2000" height="1500" viewBox="0 0 2000 1500"><rect width="2000" height="1500" fill="#091f5b"></rect><g transform="matrix(0.75,0,0,0.75,249.090909090909,437.48992812661584)"><svg viewBox="0 0 396 165" data-background-color="#091f5b" preserveAspectRatio="xMidYMid meet" height="833" width="2000" xmlns="http://www.w3.org/2000/svg" xmlns:xlink="http://www.w3.org/1999/xlink"><g id="tight-bounds" transform="matrix(1,0,0,1,0.2400000000000091,0.035673243870959936)"><svg viewBox="0 0 395.52 164.92865351225808" height="164.92865351225808" width="395.52"><g><svg viewBox="0 0 395.52 164.92865351225808" height="164.92865351225808" width="395.52"><g transform="matrix(1,0,0,1,0,101.93252448000001)"><svg viewBox="0 0 395.52 62.99612903225807" height="62.99612903225807" width="395.52"><g id="textblocktransform"><svg viewBox="0 0 395.52 62.99612903225807" height="62.99612903225807" width="395.52" id="textblock"><g><svg viewBox="0 0 395.52 62.99612903225807" height="62.99612903225807" width="395.52"><g transform="matrix(1,0,0,1,0,0)"><svg width="395.52" viewBox="4.7 -35.1 223.18 35.550000000000004" height="62.99612903225807" data-palette-color="#fff9ef"><path d="M29.5-32.15L29.25-9.4 29.35 0 25.15 0 8.55-25.65 8.3-25.65 8.25-10.55 8.3 0 4.7 0 4.85-9.5 4.75-32.05 8.9-32.05 25.45-6.4 25.8-6.4 25.75-31.85 29.5-32.15ZM48.45-28.7L42.85-28.6 42.75-17.45 48.15-17.35 53.35-17.5 53.65-17.1 53.3-14.05 47.75-14.2 42.7-14.15 42.65-10 42.85 0 38.8 0 39.05-9.65 38.8-32.05 55.85-32.05 56.15-31.65 55.8-28.45 48.45-28.7ZM80.2-32.05L80.5-31.65 80.2-28.55 74.6-28.85 71.35-28.85 71.2-10 71.35 0 67.3 0 67.6-9.65 67.35-28.85 64.1-28.85 58.4-28.55 58.15-28.95 58.45-32.05 80.2-32.05ZM123.04-32.05L126.19 0 122.59 0 121.84-9.75 120.14-25.7 119.79-25.7 110.89-3.7 107.59-3.7 99.14-25.7 98.74-25.7 97.04-10.05 96.19 0 92.79 0 96.14-32.05 100.69-32.05 102.34-27.15 109.29-8.9 109.59-8.9 116.89-27.45 118.54-32.05 123.04-32.05ZM140.29-23.3Q143.54-23.3 145.41-21.7 147.29-20.1 147.29-17.3L147.29-17.3Q147.29-16.45 146.99-11.15L146.99-11.15Q146.69-5.85 146.69-4.95L146.69-4.95Q146.69-3.85 147.04-3.43 147.39-3 148.24-3L148.24-3Q148.99-3 149.94-3.3L149.94-3.3 150.34-2.95 149.94-0.7Q148.49 0.15 147.09 0.3L147.09 0.3Q145.54 0.15 144.61-0.8 143.69-1.75 143.64-3.4L143.64-3.4 143.29-3.4Q140.59-0.65 137.94 0.35L137.94 0.35Q134.59 0.35 132.71-1.33 130.84-3 130.84-5.9L130.84-5.9Q130.84-8.1 132.01-9.4 133.19-10.7 135.49-11.25L135.49-11.25 143.59-13.15 143.64-16.4Q143.64-18.35 142.61-19.4 141.59-20.45 139.69-20.45L139.69-20.45Q137.99-20.45 136.29-19.65 134.59-18.85 132.64-17.15L132.64-17.15 132.24-17.35 131.74-20.2Q135.89-23.3 140.29-23.3L140.29-23.3ZM143.54-10.6L136.29-8.85Q135.29-8.55 134.84-8.03 134.39-7.5 134.39-6.45L134.39-6.45Q134.39-4.8 135.31-3.88 136.24-2.95 137.79-2.95L137.79-2.95Q140.54-2.95 143.39-6.5L143.39-6.5 143.54-10.6ZM165.84-22.95Q166.44-22.95 167.14-22.85L167.14-22.85 167.14-19 166.69-18.85Q165.84-19.1 164.84-19.1L164.84-19.1Q163.19-19.1 161.81-17.78 160.44-16.45 159.09-13.55L159.09-13.55 159.03-10.05 159.28 0 155.34 0 155.59-9.7 155.39-22.65 159.14-23 159.09-18.3 159.39-18.3Q160.78-20.8 162.49-21.88 164.19-22.95 165.84-22.95L165.84-22.95ZM175.73-35.1L175.43-10.05 175.68 0 171.73 0 172.03-9.75 171.78-34.75 175.73-35.1ZM189.33-22.9L180.33-12.4Q183.78-7.75 189.93-0.7L189.93-0.7 189.93-0.25Q188.98 0.05 187.86 0.23 186.73 0.4 186.38 0.45L186.38 0.45 185.88 0.25Q180.23-6.45 176.38-12.05L176.38-12.05 176.38-12.4 183.53-20.85 184.83-22.9 189.33-22.9ZM209.68-11.65L195.33-11.6 195.33-11.5Q195.33-7.3 197.23-5.05 199.13-2.8 202.63-2.8L202.63-2.8Q204.38-2.8 206.13-3.38 207.88-3.95 209.33-5L209.33-5 209.73-4.7 209.13-1.3Q205.63 0.4 202.13 0.4L202.13 0.4Q197.23 0.4 194.43-2.73 191.63-5.85 191.63-11.3L191.63-11.3Q191.63-16.8 194.43-20.05 197.23-23.3 201.98-23.3L201.98-23.3Q205.98-23.3 208.18-21.03 210.38-18.75 210.38-14.7L210.38-14.7Q210.38-13.35 210.18-12.15L210.18-12.15 209.68-11.65ZM201.98-20.5Q199.48-20.5 197.81-18.88 196.13-17.25 195.58-14.3L195.58-14.3 206.63-14.5 206.73-15.2Q206.73-17.75 205.51-19.13 204.28-20.5 201.98-20.5L201.98-20.5ZM223.78-3.05Q225.43-3.05 227.38-4.05L227.38-4.05 227.83-3.75 227.43-1.15Q224.73 0.1 222.43 0.3L222.43 0.3Q219.58-0.25 218.33-1.8 217.08-3.35 217.08-6.3L217.08-6.3 217.23-9.85 217.18-20.2 214.03-20.2 213.83-20.5 214.08-22.85 217.13-22.85 217.13-26.55 220.58-28.05 220.98-27.7 220.88-22.85 227.68-22.85 227.88-22.55 227.63-20.2 220.88-20.2 220.63-6.65Q220.58-4.65 221.33-3.85 222.08-3.05 223.78-3.05L223.78-3.05Z" opacity="1" transform="matrix(1,0,0,1,0,0)" fill="#fff9ef" class="wordmark-text-0" data-fill-palette-color="primary" id="text-0"></path></svg></g></svg></g></svg></g></svg></g><g transform="matrix(1,0,0,1,155.41941015053763,0)"><svg viewBox="0 0 84.68117969892474 87.06065032258066" height="87.06065032258066" width="84.68117969892474"><g><svg xmlns="http://www.w3.org/2000/svg" xmlns:xlink="http://www.w3.org/1999/xlink" version="1.0" x="8" y="0" viewBox="14 5 71 90" enable-background="new 0 0 100 100" xml:space="preserve" height="87.06065032258066" width="68.68117969892474" class="icon-icon-0" data-fill-palette-color="accent" id="icon-0"><g fill="#edf0f5" data-fill-palette-color="accent"><path fill="#edf0f5" d="M79.255 46h-60.51C16.129 46 14 43.871 14 41.255V9.745C14 7.129 16.129 5 18.745 5h60.51C81.871 5 84 7.129 84 9.745v31.51C84 43.871 81.871 46 79.255 46zM18.745 7C17.231 7 16 8.231 16 9.745v31.51C16 42.769 17.231 44 18.745 44h60.51C80.769 44 82 42.769 82 41.255V9.745C82 8.231 80.769 7 79.255 7H18.745z" data-fill-palette-color="accent"></path></g><path fill="#edf0f5" d="M66.282 24.182c3.869 0 7.018-3.147 7.018-7.017 0-3.868-3.148-7.016-7.018-7.016s-7.017 3.147-7.017 7.016C59.266 21.034 62.413 24.182 66.282 24.182zM66.282 12.149c2.767 0 5.018 2.25 5.018 5.016 0 2.767-2.251 5.017-5.018 5.017s-5.017-2.25-5.017-5.017C61.266 14.399 63.516 12.149 66.282 12.149z" data-fill-palette-color="accent"></path><path fill="#edf0f5" d="M78.913 37.943c-1.286-6.148-6.481-12.709-12.631-12.709-5.994 0-11.376 6.5-12.642 12.676L53.395 39h25.771L78.913 37.943zM55.903 37c1.482-5 5.807-9.989 10.379-9.989 4.539 0 8.862 4.989 10.364 9.989H55.903z" data-fill-palette-color="accent"></path><path fill="#edf0f5" d="M34.362 24.182c3.869 0 7.018-3.147 7.018-7.017 0-3.868-3.148-7.016-7.018-7.016s-7.017 3.147-7.017 7.016C27.346 21.034 30.493 24.182 34.362 24.182zM34.362 12.149c2.767 0 5.018 2.25 5.018 5.016 0 2.767-2.251 5.017-5.018 5.017s-5.017-2.25-5.017-5.017C29.346 14.399 31.596 12.149 34.362 12.149z" data-fill-palette-color="accent"></path><path fill="#edf0f5" d="M46.992 37.943c-1.12-5.359-6.133-12.709-12.63-12.709-5.996 0-11.377 6.5-12.642 12.677L21.475 39h25.77L46.992 37.943zM23.983 37c1.481-5 5.806-9.989 10.379-9.989 4.54 0 8.862 4.989 10.363 9.989H23.983z" data-fill-palette-color="accent"></path><path fill="#edf0f5" d="M66.282 74.735c3.869 0 7.018-3.148 7.018-7.018 0-3.868-3.148-7.016-7.018-7.016s-7.017 3.147-7.017 7.016C59.266 71.587 62.413 74.735 66.282 74.735zM66.282 62.702c2.767 0 5.018 2.25 5.018 5.016 0 2.767-2.251 5.018-5.018 5.018s-5.017-2.251-5.017-5.018C61.266 64.952 63.516 62.702 66.282 62.702z" data-fill-palette-color="accent"></path><path fill="#edf0f5" d="M78.913 88.721c-1.286-6.148-6.481-12.821-12.631-12.821-5.994 0-11.376 6.668-12.642 12.844L53.395 90h25.771L78.913 88.721zM55.903 88c1.482-5 5.807-9.989 10.379-9.989 4.54 0 8.862 4.989 10.364 9.989H55.903z" data-fill-palette-color="accent"></path><path fill="#edf0f5" d="M34.362 74.735c3.869 0 7.018-3.148 7.018-7.018 0-3.868-3.148-7.016-7.018-7.016s-7.017 3.147-7.017 7.016C27.346 71.587 30.493 74.735 34.362 74.735zM34.362 62.702c2.767 0 5.018 2.25 5.018 5.016 0 2.767-2.251 5.018-5.018 5.018s-5.017-2.251-5.017-5.018C29.346 64.952 31.596 62.702 34.362 62.702z" data-fill-palette-color="accent"></path><path fill="#edf0f5" d="M46.992 88.721c-1.12-5.359-6.133-12.821-12.63-12.821-5.996 0-11.377 6.668-12.642 12.845L21.475 90h25.77L46.992 88.721zM23.983 88c1.48-5 5.805-9.989 10.379-9.989 4.54 0 8.862 4.989 10.363 9.989H23.983z" data-fill-palette-color="accent"></path><g fill="#edf0f5" data-fill-palette-color="accent"><path fill="#edf0f5" d="M80.255 95H78v-2h2.255C81.769 93 83 92 83 90h2C85 93 82.871 95 80.255 95zM73 95h-8v-2h8V95zM60 95h-8v-2h8V95zM47 95h-8v-2h8V95zM34 95h-8v-2h8V95zM21 95h-1.255C17.129 95 15 92.871 15 90.255V89h2v1.255C17 91.769 18.231 93 19.745 93H21V95zM85 87h-2v-9h2V87zM17 84h-2v-8h2V84zM85 73h-2v-8h2V73zM17 71h-2v-8h2V71zM85 60h-2v-1.255C83 57.231 81.769 56 80.255 56H80v-2h0.255C82.871 54 85 56.129 85 58.745V60zM17.038 58.279l-1.971-0.338C15.457 55.658 17.425 54 19.745 54H23v2h-3.255C18.402 56 17.264 56.958 17.038 58.279zM75 56h-8v-2h8V56zM62 56h-8v-2h8V56zM49 56h-8v-2h8V56zM36 56h-8v-2h8V56z" data-fill-palette-color="accent"></path></g></svg></g></svg></g><g><rect width="155.41941015053763" height="5.681055928134194" y="80.37959439444646" x="240.10058984946238" fill="#edf0f5" data-fill-palette-color="accent"></rect><rect width="155.41941015053763" height="5.681055928134194" y="80.37959439444646" x="0" fill="#edf0f5" data-fill-palette-color="accent"></rect><rect width="155.41941015053763" height="5.681055928134194" y="69.01748253817807" x="240.10058984946238" fill="#edf0f5" data-fill-palette-color="accent"></rect><rect width="155.41941015053763" height="5.681055928134194" y="69.01748253817807" x="0" fill="#edf0f5" data-fill-palette-color="accent"></rect></g></svg></g><defs></defs></svg><rect width="395.52" height="164.92865351225808" fill="none" stroke="none" visibility="hidden"></rect></g></svg></g></svg>